<svg xmlns="http://www.w3.org/2000/svg" viewBox="0 0 256 256">
  <defs>
    <linearGradient id="g" x1="0" y1="0" x2="256" y2="256" gradientUnits="userSpaceOnUse">
      <stop stop-color="#7c3aed"/>
      <stop offset="1" stop-color="#c026d3"/>
    </linearGradient>
  </defs>
  <rect width="256" height="256" rx="56" fill="url(#g)"/>
  <path d="M136 48 C136 44 132 40 128 44 L124 48 C88 84 72 108 72 140 C72 172 96 200 128 200 C160 200 184 172 184 140 C184 116 168 96 152 80 L148 88 C160 100 168 116 168 140 C168 164 152 184 128 184 C104 184 88 164 88 140 C88 116 100 96 128 72 L132 68 C132.5 67 133 66 133 65 V48 Z" fill="white"/>
  <circle cx="128" cy="140" r="24" fill="white"/>
</svg>