<svg xmlns="http://www.w3.org/2000/svg" viewBox="0 0 64 64" fill="none">
  <defs>
    <linearGradient id="g" x1="0" y1="0" x2="64" y2="64" gradientUnits="userSpaceOnUse">
      <stop stop-color="#a855f7"/>
      <stop offset="1" stop-color="#6d28d9"/>
    </linearGradient>
  </defs>
  <rect width="64" height="64" rx="16" fill="url(#g)"/>
  <path d="M34 12 C34 11 33 10 32 11 L31 12 C22 21 18 27 18 35 C18 43 24 50 32 50 C40 50 46 43 46 35 C46 29 42 24 38 20 L37 22 C40 25 42 29 42 35 C42 41 38 46 32 46 C26 46 22 41 22 35 C22 29 25 24 32 18 L33 17 C33.5 16.5 34 16 34 15 Z" fill="white"/>
  <circle cx="32" cy="35" r="6" fill="white"/>
</svg>
